<svg width="20" height="20" viewBox="0 0 20 20" fill="none" xmlns="http://www.w3.org/2000/svg">
<g opacity="0.5">
<path d="M7.50019 11.6664C7.50026 10.3667 7.92506 9.16628 8.64374 8.19663L3.26288 9.14487L3.98651 13.2494C4.06656 13.7025 4.49918 14.005 4.95233 13.9251L7.77069 13.4271C7.59506 12.8716 7.50019 12.2799 7.50019 11.6664ZM12.5002 10.0003C12.5002 9.54016 12.873 9.16645 13.3332 9.16635C13.7934 9.16635 14.1672 9.5401 14.1672 10.0003V11.3216L15.3117 12.4662C15.6371 12.7916 15.6371 13.3194 15.3117 13.6449C14.9863 13.9703 14.4584 13.9703 14.133 13.6449L12.7443 12.2562C12.588 12.0999 12.5002 11.8874 12.5002 11.6664V10.0003ZM11.8566 5.09214C11.7767 4.63889 11.3441 4.33643 10.8908 4.41635L3.50507 5.71811C3.05182 5.79803 2.74937 6.23069 2.82929 6.68393L2.97284 7.50327L12.0012 5.91245L11.8566 5.09214ZM9.16718 11.6664C9.16718 13.9675 11.0321 15.8332 13.3332 15.8333C15.6344 15.8333 17.5002 13.9675 17.5002 11.6664C17.5 9.36532 15.6343 7.50034 13.3332 7.50034C11.0322 7.50044 9.16736 9.36538 9.16718 11.6664ZM19.1672 11.6664C19.1672 14.888 16.5549 17.5003 13.3332 17.5003C11.3446 17.5003 9.58929 16.5042 8.53632 14.9847L5.2414 15.5667C3.88166 15.8065 2.58467 14.8982 2.34491 13.5384L1.18769 6.97299C0.947994 5.61339 1.85549 4.31641 3.21503 4.07651L10.6017 2.77475C11.9612 2.53516 13.2573 3.44269 13.4973 4.8021L13.6428 5.62339C13.6557 5.69697 13.6611 5.77044 13.6642 5.84311C16.7318 6.01466 19.167 8.5559 19.1672 11.6664Z" fill="black"/>
</g>
</svg>
