<svg width="20" height="20" viewBox="0 0 20 20" fill="none" xmlns="http://www.w3.org/2000/svg">
<g opacity="0.5">
<path d="M4.02502 7.71808C4.7451 7.53815 5.50804 7.67062 6.12561 8.08234L6.5094 8.33722C8.42889 8.43572 9.88363 10.1491 9.64221 12.0804L9.4342 13.7464C9.2257 15.4144 7.80756 16.6662 6.12659 16.6663H1.66663C1.20639 16.6663 0.833618 16.2936 0.833618 15.8333C0.833666 15.3731 1.20642 15.0003 1.66663 15.0003H6.12659C6.96693 15.0002 7.67555 14.3742 7.77991 13.5403L7.98889 11.8734C8.11313 10.8787 7.33704 10.0003 6.33459 10.0003H6.24963C6.08523 10.0002 5.92452 9.95088 5.78772 9.85968L5.20081 9.46906C4.97395 9.31782 4.69384 9.26922 4.42932 9.33527C4.12791 9.41062 3.88078 9.62597 3.76526 9.91437L3.27405 11.1429C3.1475 11.4593 2.84039 11.6663 2.49963 11.6663H1.66663C1.20639 11.6663 0.833618 11.2936 0.833618 10.8333C0.833666 10.3731 1.20642 10.0003 1.66663 10.0003H1.93518L2.21741 9.2962C2.53161 8.51069 3.20426 7.92327 4.02502 7.71808ZM13.8746 8.08234C14.4922 7.67065 15.2552 7.53819 15.9752 7.71808C16.796 7.92327 17.4686 8.51069 17.7828 9.2962L18.0651 10.0003H18.3336C18.7938 10.0003 19.1666 10.3731 19.1666 10.8333C19.1666 11.2936 18.7939 11.6663 18.3336 11.6663H17.5006C17.1599 11.6663 16.8527 11.4593 16.7262 11.1429L16.235 9.91437C16.1195 9.626 15.8723 9.41062 15.5709 9.33527C15.3064 9.26926 15.0263 9.31784 14.7994 9.46906L14.2125 9.85968C14.0757 9.9509 13.9151 10.0003 13.7506 10.0003H13.6656C12.6632 10.0003 11.888 10.8786 12.0123 11.8734L12.2203 13.5403C12.3247 14.3742 13.0334 15.0001 13.8737 15.0003H18.3336C18.7938 15.0003 19.1666 15.3731 19.1666 15.8333C19.1666 16.2936 18.7939 16.6663 18.3336 16.6663H13.8737C12.1927 16.6661 10.7745 15.4144 10.566 13.7464L10.358 12.0804C10.1167 10.1494 11.5709 8.43632 13.4899 8.33722L13.8746 8.08234ZM5.18323 4.25421C5.53579 3.95838 6.0622 4.00516 6.35803 4.35773L7.42932 5.63409C7.72492 5.98654 7.67897 6.51207 7.32678 6.80792C6.97422 7.10376 6.44781 7.05795 6.15198 6.70538L5.08069 5.42902C4.78487 5.07648 4.83073 4.55006 5.18323 4.25421ZM13.653 4.35773C13.9487 4.00525 14.4742 3.95862 14.8268 4.25421C15.1793 4.55005 15.2252 5.07645 14.9293 5.42902L13.858 6.70538C13.5622 7.05781 13.0367 7.10371 12.6842 6.80792C12.3318 6.51207 12.2859 5.98661 12.5817 5.63409L13.653 4.35773ZM9.1676 5.00031V3.33331C9.1676 2.87308 9.54135 2.50031 10.0016 2.50031C10.4617 2.50043 10.8346 2.87315 10.8346 3.33331V5.00031C10.8344 5.46032 10.4616 5.83319 10.0016 5.83331C9.54146 5.83331 9.16778 5.46039 9.1676 5.00031Z" fill="black"/>
</g>
</svg>
