<svg width="20" height="20" viewBox="0 0 20 20" fill="none" xmlns="http://www.w3.org/2000/svg">
<g opacity="0.5">
<path d="M14.1664 14.2256C14.1664 13.947 14.0271 13.6868 13.7953 13.5322L9.99939 11.001L6.20447 13.5322C5.97271 13.6868 5.83337 13.947 5.83337 14.2256V16.667H14.1664V14.2256ZM14.1664 3.33301H5.83337V5.77441C5.83337 6.05299 5.97271 6.31321 6.20447 6.46777L9.99939 8.99805L13.7953 6.46777C14.0271 6.31322 14.1664 6.05304 14.1664 5.77441V3.33301ZM15.8334 5.77441C15.8334 6.61024 15.4155 7.39082 14.7201 7.85449L11.5013 10L14.7201 12.1455C15.4155 12.6092 15.8334 13.3898 15.8334 14.2256V16.667H16.6664C17.1266 16.667 17.5004 17.0398 17.5004 17.5C17.5004 17.9602 17.1266 18.333 16.6664 18.333H3.33337C2.87314 18.333 2.50037 17.9602 2.50037 17.5C2.50037 17.0398 2.87314 16.667 3.33337 16.667H4.16638V14.2256C4.16638 13.3898 4.58438 12.6092 5.27966 12.1455L8.49744 10L5.27966 7.85449C4.58438 7.3908 4.16638 6.61015 4.16638 5.77441V3.33301H3.33337C2.87314 3.33301 2.50037 2.96024 2.50037 2.5C2.50037 2.03976 2.87314 1.66699 3.33337 1.66699H16.6664C17.1266 1.66699 17.5004 2.03976 17.5004 2.5C17.5004 2.96024 17.1266 3.33301 16.6664 3.33301H15.8334V5.77441Z" fill="black"/>
</g>
</svg>
