<svg width="20" height="20" viewBox="0 0 20 20" fill="none" xmlns="http://www.w3.org/2000/svg">
<g opacity="0.5">
<path d="M10 10C13.1933 10 15.6376 11.9135 16.6299 14.5967C16.9135 15.3637 16.7186 16.1198 16.2676 16.6572C15.8281 17.1809 15.1497 17.5 14.419 17.5H5.5811C4.85027 17.5 4.17097 17.181 3.73149 16.6572C3.2807 16.1198 3.08657 15.3636 3.37016 14.5967C4.3625 11.9135 6.80679 10 10 10ZM10 11.667C7.54138 11.667 5.69715 13.1104 4.93364 15.1748C4.87666 15.3289 4.90584 15.4632 5.00883 15.5859C5.12332 15.7224 5.32986 15.833 5.5811 15.833H14.419C14.6703 15.833 14.8768 15.7224 14.9913 15.5859C15.0942 15.4632 15.1234 15.3288 15.0664 15.1748C14.3029 13.1104 12.4587 11.667 10 11.667ZM12.0831 5.41699C12.0831 4.26641 11.1506 3.33303 10 3.33301C8.84945 3.33301 7.91704 4.2664 7.91704 5.41699C7.91721 6.56744 8.84956 7.5 10 7.5C11.1505 7.49998 12.0829 6.56742 12.0831 5.41699ZM13.75 5.41699C13.7499 7.4879 12.071 9.16697 10 9.16699C7.92908 9.16699 6.25022 7.48791 6.25004 5.41699C6.25004 3.34592 7.92898 1.66699 10 1.66699C12.0711 1.66702 13.75 3.34594 13.75 5.41699Z" fill="black"/>
</g>
</svg>
