<svg width="20" height="20" viewBox="0 0 20 20" fill="none" xmlns="http://www.w3.org/2000/svg">
<g opacity="0.5">
<path d="M10 1.66699C10.368 1.66699 10.6921 1.90826 10.7979 2.26074C11.3973 4.25887 12.1743 5.68409 13.2451 6.75488C14.3159 7.82568 15.7411 8.6027 17.7393 9.20215C18.0917 9.30789 18.333 9.63199 18.333 10C18.333 10.368 18.0917 10.6921 17.7393 10.7979C15.7411 11.3973 14.3159 12.1743 13.2451 13.2451C12.1743 14.3159 11.3973 15.7411 10.7979 17.7393C10.6921 18.0917 10.368 18.333 10 18.333C9.63199 18.333 9.30789 18.0917 9.20215 17.7393C8.6027 15.7411 7.82568 14.3159 6.75488 13.2451C5.68409 12.1743 4.25887 11.3973 2.26074 10.7979C1.90826 10.6921 1.66699 10.368 1.66699 10C1.66699 9.63199 1.90826 9.30789 2.26074 9.20215C4.25887 8.6027 5.68409 7.82568 6.75488 6.75488C7.82568 5.68409 8.6027 4.25887 9.20215 2.26074L9.25098 2.13379C9.38892 1.85137 9.67794 1.66699 10 1.66699ZM10 4.88672C9.45586 6.07358 8.78457 7.08066 7.93262 7.93262C7.08066 8.78457 6.07358 9.45586 4.88672 10C6.07358 10.5441 7.08066 11.2154 7.93262 12.0674C8.78457 12.9193 9.45586 13.9264 10 15.1133C10.5441 13.9264 11.2154 12.9193 12.0674 12.0674C12.9193 11.2154 13.9264 10.5441 15.1133 10C13.9264 9.45586 12.9193 8.78457 12.0674 7.93262C11.2154 7.08066 10.5441 6.07358 10 4.88672Z" fill="black"/>
</g>
</svg>
