<svg width="148" height="64" viewBox="0 0 148 64" fill="none" xmlns="http://www.w3.org/2000/svg">
<path d="M18.764 30.2113H22.2967C22.866 30.2113 23.3552 30.0589 23.7663 29.7552C24.1889 29.4391 24.4013 28.9716 24.4013 28.3528C24.4013 27.7992 24.2493 27.423 23.9443 27.226C23.6529 27.0145 23.2574 26.9099 22.7536 26.9099H19.4582L18.764 30.2113ZM16.9571 24.4978H22.9128C23.6269 24.4978 24.2691 24.5434 24.8384 24.6356C25.4067 24.7289 25.8897 24.9 26.2873 25.1498C26.6828 25.3882 26.9878 25.723 27.2001 26.1583C27.4114 26.5802 27.5176 27.1265 27.5176 27.7992C27.5176 28.1942 27.4582 28.5829 27.3386 28.9654C27.2214 29.3303 27.0399 29.6714 26.8025 29.9729C26.5777 30.2631 26.2998 30.5067 25.9698 30.7047C25.6513 30.9017 25.2808 31.0271 24.8572 31.08V31.1193C25.5327 31.3039 26.0489 31.6604 26.4059 32.187C26.7765 32.7011 26.9618 33.3013 26.9618 33.9865C26.9618 34.7504 26.8098 35.4221 26.5048 36.0026C26.2251 36.5687 25.8175 37.0625 25.3141 37.4455C24.795 37.8359 24.2098 38.1304 23.5863 38.3152C22.9238 38.5148 22.2352 38.6148 21.5431 38.6116H14L16.9571 24.4978ZM17.4931 36.2006H21.4036C22.1187 36.2006 22.7005 36.0088 23.1502 35.6274C23.6133 35.2438 23.8454 34.6779 23.8454 33.9274C23.8454 33.5573 23.7663 33.2681 23.6071 33.0567C23.4638 32.848 23.2643 32.6838 23.0315 32.583C22.7829 32.4613 22.5134 32.3875 22.2373 32.3653C21.9536 32.3393 21.6688 32.3262 21.3838 32.3259H18.3268L17.4941 36.1996L17.4931 36.2006ZM34.2405 24.4978H37.4359L39.7986 38.6116H36.701L36.2451 35.4688H30.9451L29.158 38.6116H25.8834L34.2405 24.4978ZM32.1754 33.1552H35.9672L35.2719 27.5411H35.2324L32.1754 33.1552ZM112.573 33.1344L109.178 24.4988H112.373L114.497 30.5078L118.904 24.4988H122.576L115.669 33.2754L114.576 38.6137H111.441L112.572 33.1375L112.573 33.1344ZM130.883 29.3986C130.883 28.529 130.644 27.877 130.168 27.4416C129.705 26.9938 129.096 26.7699 128.342 26.7699C127.548 26.7699 126.854 26.9544 126.257 27.3234C125.676 27.6787 125.181 28.1581 124.808 28.727C124.428 29.3168 124.146 29.9645 123.975 30.6446C123.793 31.3149 123.7 32.0059 123.697 32.7001C123.697 33.1873 123.757 33.6486 123.876 34.0839C124.008 34.5193 124.199 34.908 124.451 35.2501C124.716 35.5797 125.047 35.843 125.444 36.041C125.854 36.2379 126.344 36.3374 126.913 36.3374C127.337 36.3374 127.733 36.2649 128.104 36.1197C128.488 35.9622 128.825 35.7569 129.116 35.5071C129.407 35.2438 129.651 34.9401 129.85 34.5981C130.049 34.256 130.181 33.8994 130.248 33.5304H133.364C133.046 34.5182 132.669 35.3548 132.233 36.041C131.809 36.7261 131.326 37.2859 130.783 37.7202C130.254 38.1431 129.659 38.4458 128.997 38.6303C128.308 38.8337 127.592 38.9336 126.873 38.9268C124.861 38.9268 123.306 38.3929 122.208 37.3263C121.124 36.2586 120.58 34.7162 120.58 32.7001C120.58 31.5537 120.759 30.4663 121.116 29.4391C121.452 28.4491 121.971 27.5305 122.645 26.7305C123.318 25.9412 124.15 25.3014 125.086 24.8523C126.052 24.391 127.13 24.1609 128.322 24.1609C129.142 24.1609 129.903 24.2728 130.605 24.4967C131.272 24.7016 131.887 25.0454 132.411 25.5053C132.927 25.9407 133.324 26.4869 133.601 27.1452C133.879 27.7909 134.013 28.5424 133.999 29.3986H130.883Z" fill="black"/>
<path fill-rule="evenodd" clip-rule="evenodd" d="M86.9951 8.02259C84.8988 8.02881 84.0953 8.19673 81.7409 9.14519C79.8735 9.86205 77.9313 10.368 75.9506 10.6534C74.4029 10.841 73.6337 10.5985 71.6852 9.24885C70.1114 8.15734 69.5577 7.95003 68.0953 8.00912C67.0078 7.97892 65.9313 8.23265 64.9727 8.74508C64.0838 9.23641 63.6789 9.67591 62.9441 11.1302C62.273 12.2977 61.746 13.5416 61.3745 14.8349C60.7664 16.6316 59.9947 18.3692 59.069 20.026C58.8495 20.3479 58.6085 20.6547 58.3477 20.9444C57.4628 21.879 56.6566 22.8844 55.9371 23.9505C55.6206 24.4225 55.4581 24.9804 55.4718 25.5478C55.3802 26.1697 55.4614 26.8062 55.706 27.3877C55.8881 27.8334 55.9818 28.3103 55.9839 28.7912C55.9725 29.2463 55.9079 29.294 55.1887 29.8827C54.7796 30.2217 53.9324 30.8633 53.3183 31.3101C52.0528 32.2336 50.8861 33.2844 49.8366 34.4457C47.9922 36.3851 47.6144 37.0184 47.4187 38.5173C47.2001 40.1779 47.5946 42.2635 48.8176 45.9982C49.7804 48.9213 50.3133 49.9879 51.4874 51.3386C51.9552 51.9278 52.5398 52.4147 53.2048 52.7691C54.2686 53.419 54.7734 53.562 57.235 54.1891C60.3814 54.9903 63.5876 55.5377 66.8223 55.8259C69.3558 56.0985 70.4549 56.0622 72.2452 55.6372C74.1603 55.1832 74.2374 55.1791 78.4965 55.5108C82.1166 55.7844 82.4653 55.7989 82.9389 55.6538C84.4117 55.1718 85.8491 54.0513 87.4718 52.1067C89.0945 50.1621 89.5619 49.4811 90.1094 48.1024C90.3477 47.4846 90.4289 46.9819 90.7151 44.3749C91.2002 39.8825 91.3313 39.443 92.5158 38.2924C92.9009 37.9088 93.2413 37.4839 93.5306 37.0257C93.7159 36.6214 94.0355 36.2928 94.4362 36.0928C94.8002 35.8754 95.2318 35.799 95.6488 35.8782C97.0623 35.9922 98.1198 35.6004 99.424 34.483C101.245 32.924 102.033 31.6635 102.789 29.0618C103.011 28.2709 103.302 27.4986 103.658 26.7564C104.898 24.3723 105.419 22.776 105.478 21.1859C105.536 19.5969 105.424 19.488 103.084 16.7629C101.479 14.8971 101.035 14.3187 100.801 13.7579C100.237 12.6458 99.4295 11.6738 98.4383 10.9136C97.1933 9.88257 95.7484 9.11794 94.1937 8.66734C91.8189 8.23433 89.4094 8.01852 86.9951 8.02259ZM93.5005 9.99207C96.1453 10.6783 98.5226 12.4 99.4479 14.3063C100.276 15.8022 101.312 17.1749 102.524 18.3841C103.096 18.9245 103.58 19.5505 103.958 20.2396C104.27 21.1942 103.765 23.4218 102.854 25.1467C102.215 26.2816 101.72 27.4912 101.381 28.7477C100.968 30.5742 99.9553 32.2118 98.5039 33.4019C97.9157 33.9707 97.1693 34.3503 96.3618 34.4913C96.0206 34.3393 95.701 34.1431 95.4115 33.9077C93.4233 32.5022 91.3078 31.2845 89.0924 30.2704C88.7423 30.1219 88.4028 29.9494 88.0766 29.7542C87.4521 29.3022 87.4541 27.6686 88.0464 24.476C88.6397 21.2844 88.7365 19.3844 88.419 17.2926C88.225 16.1284 87.792 15.0165 87.1471 14.0264C86.1375 12.6737 84.1307 11.6526 81.5515 11.1924L80.7864 11.0494L82.2363 10.4596C83.8763 9.66226 85.6999 9.31415 87.5197 9.45098L89.9564 9.50799C91.1502 9.56293 92.3358 9.72567 93.5005 9.99207ZM70.2197 9.96201L71.6071 10.8928C72.2917 11.3936 73.0704 11.7521 73.897 11.947C74.7254 12.1424 75.5847 12.1706 76.4242 12.03C78.2793 11.9564 80.1371 12.0805 81.9657 12.4C83.5185 12.6567 84.9526 13.3886 86.0688 14.4939C86.7646 15.441 87.2092 16.5476 87.3615 17.7114C87.5347 19.8132 87.41 21.9289 86.991 23.9961C86.8088 24.9704 86.6017 26.432 86.5371 27.2478C86.4054 27.9478 86.431 28.6682 86.6121 29.3572C86.9056 30.344 87.2543 30.6197 88.9436 31.4272C90.6739 32.2511 92.348 33.187 93.9553 34.229L94.3352 34.512L93.8596 34.7629C93.5741 34.915 93.3003 35.0879 93.0404 35.2801L92.6969 35.5393L91.9225 35.022C90.421 34.0051 88.7842 33.202 87.0597 32.6358C85.6826 32.3832 84.2608 32.6739 83.095 33.4464C82.7711 33.6053 82.5114 33.8697 82.3592 34.1959C81.8904 35.0334 81.2179 35.7402 80.4034 36.2514C79.0118 37.0672 78.8379 37.1936 78.5028 37.6404C78.1676 38.0882 78.1541 38.1255 77.9074 40.1592C77.6295 42.4418 77.3901 43.6338 77.1819 43.8473C76.9811 44.0028 76.7656 44.1376 76.5366 44.2495L76.0474 44.4993L76.0037 44.2609C76.0193 43.7447 76.0745 43.2285 76.1682 42.7185C76.3774 41.4207 76.3784 41.4021 76.1609 41.2031C75.7695 40.832 74.1114 40.8485 73.7721 41.2269C73.59 41.429 73.59 41.429 73.4807 41.2207C73.3714 41.0123 73.2517 40.9968 72.4971 40.9346C71.7424 40.8734 71.5822 40.9139 71.3178 41.088L71.0138 41.3057L70.7536 41.0807C70.5367 40.921 70.2855 40.8137 70.0197 40.7673C69.754 40.7209 69.4811 40.7366 69.2225 40.8133C68.9019 40.9429 68.8582 40.9356 68.4939 40.7211C68.2086 40.5584 67.8895 40.4633 67.5613 40.4433C66.9697 40.3778 66.371 40.4378 65.8044 40.6195C65.8033 40.664 65.6722 40.5542 65.5119 40.3821C65.1585 40.0841 64.743 39.8681 64.2955 39.7496C63.848 39.6311 63.3797 39.6131 62.9243 39.6969C62.7005 39.7602 62.6568 39.7467 62.6662 39.6099C62.659 39.4581 62.596 39.3142 62.4892 39.2056C62.3814 39.0955 62.2372 39.0281 62.0833 39.0159C61.8524 39.0239 61.6292 39.1012 61.4432 39.2377C61.2496 39.3704 61.0893 39.4596 61.0706 39.4347C61.0236 39.2779 60.9851 39.1187 60.955 38.9579C60.899 38.6875 60.7908 38.4305 60.6365 38.2012C60.1515 37.5295 58.7141 37.0827 58.1156 37.4123C57.845 37.5554 57.8325 37.5492 57.5743 37.2309C57.4245 37.025 57.2271 36.858 56.9989 36.744C56.7706 36.63 56.5182 36.5723 56.2628 36.5758C55.9901 36.5696 55.732 36.4825 55.7008 36.4131C55.2682 36.0175 54.7029 35.7971 54.1156 35.7953C53.9114 35.808 53.7067 35.7801 53.5133 35.7134C53.32 35.6467 53.1419 35.5424 52.9894 35.4066C52.6003 35.0972 52.1311 34.9042 51.6363 34.8499C51.4218 34.8085 51.527 34.6851 52.5845 33.7501C53.3567 33.0766 54.1608 32.4401 54.9941 31.8429C56.9332 30.4601 57.412 29.8475 57.4036 28.644C57.3566 28.1155 57.2497 27.5939 57.0851 27.0892C56.9283 26.636 56.8331 26.164 56.802 25.6857C56.8166 25.1 57.3911 24.1961 58.457 22.9865C60.2993 20.8916 60.3784 20.762 61.7981 17.7331C62.1416 16.9775 62.433 16.2011 62.6745 15.4092C63.0639 14.0573 63.6161 12.7573 64.3191 11.5376C64.9831 10.3621 65.2631 10.0626 66.2061 9.71116C67.0194 9.413 67.8951 9.32422 68.7521 9.45305C69.2839 9.46342 69.7992 9.64171 70.2197 9.96201ZM68.7011 11.7967C68.0713 11.8726 67.4701 12.1027 66.9514 12.4663C66.5694 12.7628 66.2457 13.2728 65.5702 14.6359C65.045 15.7398 64.3796 16.772 63.5905 17.7072C62.6204 18.9314 62.3977 19.4694 62.5194 20.1763C62.6235 20.5329 62.7973 20.8656 63.0336 21.1538C63.2699 21.442 63.5624 21.6814 63.8954 21.8566C64.4003 22.1157 64.9675 22.237 65.5379 22.207C66.7801 22.3199 68.0323 22.1799 69.2184 21.7954C69.8691 21.4223 70.3769 20.8443 70.662 20.1525C71.2847 18.4897 71.7747 16.7807 72.1276 15.0412C72.2566 13.6532 71.9506 12.9349 70.967 12.3627C70.2968 11.9248 69.5021 11.7152 68.7021 11.7656L68.7011 11.7967ZM79.2345 13.7569C78.2218 13.8574 76.8447 14.3239 76.5554 14.7157C76.4677 14.8601 76.4276 15.0282 76.4407 15.1964C76.4537 15.3646 76.5193 15.5245 76.6282 15.6538C76.9394 15.9046 77.0664 15.8943 77.9001 15.5584C78.2457 15.4143 78.6038 15.2993 78.9691 15.2164L79.2876 15.1676L78.9691 15.4973C77.8852 16.7179 76.8838 18.0089 75.9714 19.3616C75.5632 20.3862 75.3719 21.4837 75.4094 22.5853C75.4385 22.9263 75.4302 23.2694 75.3854 23.6074C75.3854 23.6074 75.1398 23.5016 74.917 23.3161L74.4986 22.9813L74.5351 21.5166C74.4707 20.6423 74.623 19.7656 74.9785 18.9635C75.5218 17.5051 75.5259 17.3299 75.0701 17.0386C74.9145 16.9473 74.7294 16.92 74.5539 16.9623C74.3784 17.0047 74.2264 17.1135 74.1302 17.2656C73.9064 17.7425 73.7138 18.2348 73.5546 18.7365C73.2251 19.6031 73.0668 20.5249 73.0883 21.4513C73.0456 23.1907 73.0779 23.4653 73.7336 24.1547C74.3523 24.7492 75.1208 25.166 75.9579 25.3612C78.4279 26.1936 80.2358 26.006 81.5483 24.7901C82.5674 23.7048 83.4654 22.5127 84.2264 21.2347C84.5285 20.599 84.6876 19.9054 84.6928 19.2022C84.6981 18.4989 84.5492 17.8031 84.2566 17.163C83.3407 14.8712 81.3485 13.5205 79.2345 13.7382V13.7569ZM68.2389 14.3187C67.6922 15.4106 67.0284 16.4404 66.2592 17.39C65.3745 18.4919 65.1996 18.8868 65.1039 19.9638L65.0393 20.7609L64.7812 20.6801C64.4507 20.5551 64.1676 20.3304 63.9714 20.0374C63.8319 19.771 63.987 19.4134 64.877 18.324C65.7076 17.3081 66.4101 16.199 66.9712 15.0173C67.1887 14.5633 67.4323 14.1217 67.7018 13.6947C67.8923 13.4563 68.7583 13.0955 68.7999 13.2282C68.6438 13.5962 68.4565 13.9507 68.24 14.2876L68.2389 14.3187ZM61.6493 24.0914C61.3505 24.193 61.0758 24.3526 60.8426 24.561C60.6095 24.7694 60.4221 25.0235 60.292 25.3073C60.1848 25.5478 59.8965 26.3895 59.6623 27.1628C59.4281 28.0128 59.0888 28.8296 58.6506 29.5966C58.2429 30.1309 58.0175 30.7811 58.0073 31.4521C57.9511 31.8325 57.9782 32.2202 58.0875 32.5902C58.3944 33.164 58.8558 33.6414 59.4198 33.9689C59.7268 34.1606 60.0963 34.2322 60.4565 34.1679C61.9834 34.0425 64.0984 33.0069 65.7971 31.5692C67.1918 30.3554 67.6727 29.6682 67.834 28.5424C67.932 28.1754 67.9339 27.7894 67.8395 27.4214C67.7452 27.0534 67.5576 26.7156 67.2949 26.4403C66.2488 25.0741 63.1179 23.7774 61.6503 24.0603L61.6493 24.0914ZM62.7005 25.7821C62.0045 26.6486 61.5535 27.6846 61.3943 28.7829C61.2552 29.2707 61.056 29.7393 60.801 30.1781C60.4643 30.719 60.2343 31.3188 60.1234 31.9455C60.1026 32.1984 60.038 32.4461 59.9339 32.6773C59.8111 32.5898 59.7023 32.4843 59.6113 32.3643C59.2158 31.8802 59.3136 31.2904 59.9777 30.1149C60.5746 29.03 61.0297 27.8735 61.3318 26.6735C61.6514 25.5582 61.769 25.4359 62.4226 25.4504L62.9431 25.4638L62.7005 25.7821ZM87.8996 34.0912C88.1921 34.2062 88.4721 34.3503 88.7344 34.5224C88.7896 34.5856 88.6699 34.8023 88.4284 35.0894C87.7747 35.8347 86.0053 38.3183 85.6285 38.9641C85.3929 39.4049 85.2165 39.8747 85.1039 40.3614C84.7344 41.9991 84.6522 42.222 84.3035 42.4511C83.9548 42.6791 83.502 42.8118 81.4037 42.8937C80.6542 42.9103 79.9048 42.9714 79.1637 43.0772C79.0076 43.1321 78.8442 43.1601 78.6787 43.159C78.6787 43.159 78.7464 42.4625 78.8681 41.6602C78.9889 40.8589 79.1231 39.7944 79.1596 39.3787C79.2397 38.3888 79.4583 38.0384 80.1973 37.687C81.4817 37.0941 82.8983 35.787 83.2689 34.9163C83.4375 34.54 83.7601 34.3047 84.5626 33.9492C85.0914 33.729 85.6615 33.6248 86.2343 33.6438C86.8071 33.6628 87.3691 33.8044 87.8819 34.059L87.8996 34.0912ZM91.0347 35.7621C91.4094 35.9798 91.7664 36.2265 92.1026 36.4981C92.1703 36.5872 91.9985 36.8267 91.5041 37.3201C90.8975 37.8745 90.4212 38.5555 90.1094 39.3144C89.659 41.087 89.3681 42.8961 89.2403 44.7201C89.209 45.651 89.0779 46.5756 88.8489 47.4805C88.1619 49.5536 84.7896 53.4459 83.0076 54.1591L82.3654 54.4182L78.1749 54.1435C73.6659 53.8554 73.7357 53.8574 71.8195 54.3353C70.2915 54.7168 69.6441 54.7333 66.7807 54.4286C65.361 54.2814 63.5509 54.0637 62.7599 53.9393C60.1151 53.5392 55.6956 52.4612 54.5527 51.9408C52.9633 51.2111 51.8403 49.875 50.9181 47.6194C50.5767 46.7756 49.5056 43.5561 49.5223 43.4006C49.5223 43.3695 49.6555 43.4047 49.8179 43.527C50.0104 43.6379 50.2259 43.7064 50.4476 43.7292C50.6828 43.7343 50.788 43.837 50.9337 44.121C51.1627 44.5874 51.6227 44.7605 52.6573 44.7854L53.4255 44.8041L53.7065 45.4965C53.9886 46.1838 54.3602 46.5725 54.7661 46.6077C54.9899 46.5808 55.2064 46.5144 55.4052 46.4108L55.8361 46.1962L56.0172 46.5808C56.446 47.5085 57.6555 48.148 59.4281 48.3844C59.9277 48.5119 60.4523 48.5243 60.9581 48.4196C61.489 48.2641 61.6014 48.0796 61.618 47.4007L61.6285 46.957L61.82 47.1861C62.049 47.4473 62.253 47.4214 62.6995 47.0762L63.0034 46.8409L62.9909 47.3333C62.968 47.6557 63.0138 47.9801 63.1262 48.2838C63.6769 49.6822 66.2696 49.6065 67.1065 48.1232L67.299 47.7977L67.4364 48.1252C67.5251 48.3334 67.6583 48.5198 67.8268 48.6714C67.9952 48.8231 68.1948 48.9363 68.4117 49.0032C68.7937 49.0519 69.1799 48.9742 69.5109 48.7824C69.8402 48.5915 70.0953 48.2957 70.2353 47.9428L70.3841 47.5779L70.6454 47.8018C70.8482 47.962 71.0873 48.0705 71.3417 48.1179C71.5962 48.1652 71.8585 48.1499 72.1057 48.0734C72.5907 47.8547 72.9811 47.4722 73.2059 46.9954C73.21 46.8088 73.2923 46.8295 73.616 47.099C73.8293 47.2655 74.0802 47.3774 74.3469 47.4251C74.6136 47.4728 74.8879 47.4548 75.146 47.3727C75.3781 47.2359 75.5738 47.0483 75.7195 46.8244C75.8653 46.6005 75.9558 46.3475 75.9839 46.0822C75.9912 45.7836 76.0755 45.7297 76.7417 45.4768C77.3142 45.2724 77.8327 44.9414 78.2582 44.5087C78.5184 44.3635 78.8057 44.2703 79.1034 44.236C80.21 44.0602 81.3291 43.9743 82.4497 43.979C85.0758 43.866 85.6399 43.3871 86.1822 40.9491C86.4122 39.8566 86.5528 39.585 87.7955 37.8684C88.9717 36.2369 89.8689 35.136 90.0084 35.1454C90.3498 35.3205 90.6797 35.5154 90.9972 35.73L91.0347 35.7621ZM52.3877 36.0907C52.75 36.3488 52.7562 36.3364 52.0786 37.0444C51.8246 37.3056 51.426 37.7451 51.2293 38.0281C50.8483 38.5235 50.8358 38.5298 50.586 38.3618C50.4168 38.2516 50.256 38.129 50.1052 37.9949L49.8887 37.7896L50.3289 37.177C51.2449 35.788 51.6716 35.5372 52.3503 36.0524L52.3877 36.0907ZM54.8202 36.8785C54.9066 36.949 54.814 37.1024 54.4382 37.431C54.0639 37.806 53.7262 38.2156 53.4296 38.6541C53.1465 39.0781 52.853 39.4077 52.777 39.3994C52.408 39.296 52.0672 39.111 51.7799 38.8583C52.2371 38.2304 52.751 37.6454 53.3152 37.1107C53.7107 36.752 53.8012 36.7168 54.2321 36.752C54.4195 36.7593 54.6058 36.7956 54.7828 36.8588L54.8202 36.8785ZM56.8187 37.7243C56.9472 37.8416 57.0347 37.9967 57.0685 38.167C57.1132 38.3981 56.9821 38.5888 56.2379 39.3942C55.7549 39.926 55.3178 40.4018 55.272 40.4443C54.7481 40.3675 54.2489 40.1721 53.8127 39.8731C54.024 39.303 54.3643 38.7889 54.8088 38.3691C55.5166 37.4994 56.2774 37.2683 56.7812 37.685L56.8187 37.7243ZM59.6009 38.4893C60.0068 38.7298 60.1338 39.019 60.2035 39.8192L60.2524 40.407L59.7362 41.0185L59.2262 41.6301L58.4278 41.4985C57.9176 41.4079 57.4135 41.2857 56.9186 41.1326L56.1942 40.9025L56.8863 40.1333C58.5382 38.3017 58.5579 38.2644 58.9191 38.311C59.1398 38.3224 59.3584 38.3701 59.5644 38.451L59.6009 38.4893ZM49.4765 39.0657C49.3453 39.4233 49.2392 39.7902 49.1569 40.1613C48.9935 40.8693 48.9529 40.9615 48.8822 40.7418C48.83 40.2459 48.821 39.7465 48.8551 39.2491L48.8863 38.0032L49.2319 38.3981C49.4973 38.7226 49.5462 38.8044 49.439 39.0273L49.4765 39.0657ZM61.5691 41.0932C61.0974 42.776 60.8414 44.5115 60.8072 46.2584C60.828 46.7311 60.7968 47.2058 60.7094 47.6723C59.744 47.6892 58.7823 47.5503 57.8616 47.2607C57.2329 47.0026 56.5637 46.332 56.5918 45.9453C56.6927 45.651 56.8707 45.3856 57.1059 45.1783C57.3734 44.8984 57.8637 44.3356 58.1905 43.9572C58.5173 43.5778 59.3084 42.6418 59.9548 41.9401C61.5473 40.2069 61.8002 39.9447 61.8377 39.9892C61.7528 40.3515 61.6422 40.7072 61.5067 41.0538L61.5691 41.0932ZM64.5897 40.6599C65.2184 40.9491 65.3297 41.569 64.9165 42.6325C64.4544 43.8691 62.4518 46.559 62.2884 46.2117C61.897 45.3483 61.9834 42.0696 62.4122 41.1751C62.5059 40.9646 62.6381 40.7708 62.8005 40.605C63.0763 40.4806 63.376 40.4177 63.6787 40.4206C63.9814 40.4234 64.2799 40.492 64.5533 40.6215L64.5897 40.6599ZM50.9503 40.3354C50.8549 40.8052 50.7903 41.2806 50.7567 41.7587C50.6755 42.7237 50.6412 42.8543 50.4882 42.8377C50.228 42.8315 49.9345 42.4003 49.8741 41.9939C49.8811 41.2758 49.9798 40.5614 50.1676 39.868L50.2644 39.5456L50.6464 39.7788C50.9857 39.9374 51.0034 39.9747 50.9139 40.2784L50.9503 40.3354ZM75.4375 42.7455L75.2689 43.6452L74.8879 43.6369C74.1708 43.6193 74.152 43.6193 74.2218 42.8097C74.2342 42.5133 74.2905 42.221 74.3904 41.9411C74.7359 41.7763 75.1263 41.7224 75.5051 41.7856C75.5364 41.7752 75.5103 42.0862 75.401 42.6874L75.4375 42.7455ZM68.2608 41.6882C67.9985 42.5537 67.6259 43.384 67.1523 44.1573C66.7172 44.1967 66.279 44.1158 65.8887 43.9209C65.77 43.8318 65.8002 43.6514 66.0916 42.6356C66.2079 42.1864 66.361 41.7475 66.5496 41.3233C66.6329 41.2383 66.9066 41.2321 67.451 41.2953C68.1931 41.3575 68.2181 41.3699 68.2244 41.6322L68.2608 41.6882ZM72.7261 42.6874L72.6469 43.5954L72.2764 43.6867C72.0476 43.7467 71.8154 43.7931 71.5811 43.8256L71.2626 43.8743L71.502 42.8823C71.5796 42.5144 71.6886 42.1537 71.8278 41.8043C71.9916 41.7314 72.1738 41.7097 72.3503 41.7421L72.7999 41.7524L72.7261 42.6874ZM70.4403 41.9152C70.6735 42.2572 70.6631 42.4127 70.3539 43.3477L70.1145 44.0785L69.2923 43.952C69.0026 43.9122 68.7155 43.8554 68.4325 43.782C68.6386 43.0875 68.9415 42.4221 69.3318 41.8074C69.4017 41.7383 69.4853 41.6845 69.5772 41.6495C69.6692 41.6146 69.7675 41.5991 69.8658 41.6042C69.9641 41.6088 70.0603 41.6337 70.1484 41.6772C70.2366 41.7208 70.3147 41.782 70.3779 41.8571L70.4403 41.9152ZM52.649 40.7252L53.2402 40.945L53.2111 42.1287C53.1965 42.7527 53.1788 43.4628 53.2121 43.6452L53.2548 43.9831L52.5772 43.9292C51.7081 43.8587 51.6217 43.7571 51.6082 42.7776C51.629 41.8986 51.8226 40.4806 51.9683 40.4909C52.191 40.5376 52.4096 40.5967 52.624 40.6682L52.649 40.7252ZM56.3753 42.0613C57.0081 42.164 57.5337 42.2572 57.6035 42.2583C57.8064 42.2635 57.7294 42.5361 57.3328 43.1943C56.573 44.4237 55.1835 45.8686 54.7973 45.8406C54.4101 45.8127 53.6857 42.4646 53.973 41.6301L54.0562 41.3813L54.6849 41.628C55.2251 41.7991 55.7778 41.9286 56.3399 42.0168L56.3753 42.0613ZM75.2595 45.3234C75.1741 46.219 74.967 46.6502 74.5923 46.6606C74.4272 46.6645 74.2638 46.6263 74.1177 46.5497C73.9642 46.3736 73.858 46.1616 73.8092 45.9335C73.7605 45.7054 73.7706 45.4688 73.8387 45.2457C73.9376 44.8362 73.9709 44.8062 74.3852 44.7409C75.2782 44.5563 75.2845 44.5626 75.2231 45.2788L75.2595 45.3234ZM72.7146 45.5369C72.5189 46.7808 72.0901 47.3934 71.4874 47.3789C70.9857 47.3675 70.8317 46.9145 70.891 45.793L70.9576 44.9274L71.6894 44.8704C72.9124 44.7056 72.8499 44.6486 72.6834 45.4924L72.7146 45.5369ZM69.9636 45.8272C69.7034 47.3302 69.2715 48.1626 68.8052 48.2444C68.1682 48.3481 67.9517 47.8132 68.0214 46.2988L68.0495 45.1513L69.0164 45.0684C69.2288 45.0612 69.4401 45.0663 69.6514 45.084L70.0958 45.0943L69.9636 45.8272ZM66.1614 45.4623C66.9212 45.6053 66.9451 45.6427 66.7297 46.6357C66.4424 48.0143 65.8252 48.5606 64.6532 48.458C63.8673 48.3958 63.6821 48.1781 63.7456 47.382C63.8361 46.6896 64.0682 46.0231 64.4294 45.4208C64.5939 45.1627 64.6324 45.1513 65.0685 45.2363L66.1614 45.4623Z" fill="black"/>
</svg>
