<svg width="163" height="64" viewBox="0 0 163 64" fill="none" xmlns="http://www.w3.org/2000/svg">
<path d="M44.3885 21.856C45.7777 21.856 46.9038 23.0396 46.9038 24.4995V26.0697C46.9038 27.5297 48.03 28.7133 49.4191 28.7133H50.9906C52.3798 28.7133 53.506 29.8968 53.506 31.3568V32.8937C53.506 34.3537 54.6321 35.5372 56.0213 35.5372H57.5306C58.9198 35.5372 60.0459 36.7208 60.0459 38.1808V39.833C60.0459 41.293 58.9198 42.4765 57.5306 42.4765H55.9585C54.5693 42.4765 53.4432 41.293 53.4432 39.833V38.2961C53.4432 36.8361 52.317 35.6526 50.9278 35.6526H49.4185C48.0294 35.6526 46.9032 34.469 46.9032 33.009V31.4389C46.9032 29.9789 45.7771 28.7953 44.3879 28.7953H42.8164C41.4272 28.7953 40.3011 27.6118 40.3011 26.1518V24.5828C40.3011 23.1229 39.1749 21.9393 37.7857 21.9393H36.2136C34.8244 21.9393 33.6983 23.1229 33.6983 24.5828V26.1518C33.6983 27.6118 32.5721 28.7953 31.183 28.7953H29.6109C28.2217 28.7953 27.0955 29.9789 27.0955 31.4389V33.009C27.0955 34.469 25.9694 35.6526 24.5802 35.6526H23.1181C21.7289 35.6526 20.6028 36.8361 20.6028 38.2961V39.833C20.6028 41.293 19.4766 42.4765 18.0874 42.4765H16.5153C15.1261 42.4765 14 41.293 14 39.833L14 38.1808C14 36.7208 15.1261 35.5372 16.5153 35.5372H17.9775C19.3666 35.5372 20.4928 34.3537 20.4928 32.8937V31.3568C20.4928 29.8968 21.6189 28.7133 23.0081 28.7133H24.5802C25.9694 28.7133 27.0955 27.5297 27.0955 26.0697V24.4995C27.0955 23.0396 28.2217 21.856 29.6109 21.856H31.183C32.5721 21.856 33.6983 20.6725 33.6983 19.2125V17.6435C33.6983 16.1836 34.8244 15 36.2136 15L37.7857 15C39.1749 15 40.3011 16.1835 40.3011 17.6435V19.2125C40.3011 20.6725 41.4272 21.856 42.8164 21.856H44.3885Z" fill="black"/>
<path d="M44.3884 35.2374C45.7776 35.2374 46.9038 36.4209 46.9038 37.8809V39.4172C46.9038 40.8771 48.0299 42.0607 49.4191 42.0607H50.9855C52.3746 42.0607 53.5008 43.2442 53.5008 44.7042V46.3565C53.5008 47.8164 52.3746 49 50.9855 49H49.4133C48.0242 49 46.898 47.8164 46.898 46.3565V44.8202C46.898 43.3602 45.7719 42.1767 44.3827 42.1767H42.8163C41.4272 42.1767 40.301 40.9931 40.301 39.5331V37.9636C40.301 36.5036 39.1749 35.32 37.7857 35.32H36.2136C34.8244 35.32 33.6983 36.5036 33.6983 37.9636V39.5331C33.6983 40.9931 32.5721 42.1767 31.1829 42.1767H29.7208C28.3316 42.1767 27.2055 43.3602 27.2055 44.8202V46.3565C27.2055 47.8165 26.0793 49 24.6901 49H23.118C21.7289 49 20.6027 47.8165 20.6027 46.3565V44.7042C20.6027 43.2442 21.7289 42.0607 23.118 42.0607H24.5802C25.9694 42.0607 27.0955 40.8771 27.0955 39.4172V37.8809C27.0955 36.4209 28.2217 35.2374 29.6108 35.2374H31.1829C32.5721 35.2374 33.6983 34.0538 33.6983 32.5938V31.0243C33.6983 29.5643 34.8244 28.3807 36.2136 28.3807H37.7857C39.1749 28.3807 40.301 29.5643 40.301 31.0243V32.5938C40.301 34.0538 41.4272 35.2374 42.8163 35.2374H44.3884Z" fill="black"/>
<path d="M70.8614 42.2L78.6238 24.7057H81.9538L89.6713 42.2H86.4988L84.3613 37.4053H76.0813L73.9439 42.2H70.8614ZM77.0938 34.8567H83.4613L80.3338 27.7078H80.2213L77.0938 34.8567Z" fill="black"/>
<path d="M91.5936 42.2V24.0578H94.6536V42.2H91.5936Z" fill="black"/>
<path d="M101.879 42.2C101.054 42.2 100.409 41.9984 99.9442 41.5953C99.4942 41.1921 99.2692 40.5802 99.2692 39.7594V31.5307H96.8392V29.2413H99.2917V25.3537H102.307V29.2413H105.659V31.5307H102.329V39.889H105.997V42.2H101.879Z" fill="black"/>
<path d="M113.8 42.4376C112 42.4376 110.598 41.9696 109.593 41.0337C108.603 40.0978 108.108 38.8235 108.108 37.2109V29.2413H111.168V36.6278C111.168 37.6932 111.453 38.4996 112.023 39.0467C112.593 39.5795 113.44 39.8458 114.565 39.8458C115.72 39.8458 116.613 39.5579 117.243 38.9819C117.888 38.406 118.21 37.5997 118.21 36.563V29.2413H121.27V39.2411H122.823V42.2H119.65V40.1482H118.705C118.195 40.8969 117.543 41.4657 116.748 41.8544C115.953 42.2432 114.97 42.4376 113.8 42.4376Z" fill="black"/>
<path d="M125.904 42.2V32.2002H124.352V29.2413H127.547V31.725H128.492C128.852 30.8755 129.422 30.2276 130.202 29.7812C130.997 29.3349 131.904 29.1117 132.924 29.1117H134.049V31.6386H132.789C131.514 31.6386 130.547 31.9914 129.887 32.6969C129.242 33.4025 128.919 34.3456 128.919 35.5263V42.2H125.904Z" fill="black"/>
<path d="M139.967 42.4376C138.422 42.4376 137.199 42.0704 136.299 41.3361C135.414 40.6018 134.972 39.6371 134.972 38.442C134.972 37.1893 135.422 36.2174 136.322 35.5263C137.222 34.8351 138.512 34.4896 140.192 34.4896H144.466V33.9496C144.466 32.2218 143.446 31.3579 141.406 31.3579C139.682 31.3579 138.647 31.9554 138.302 33.1505H135.242C135.497 31.8114 136.157 30.7819 137.222 30.062C138.302 29.3421 139.704 28.9821 141.429 28.9821C143.364 28.9821 144.841 29.4141 145.861 30.278C146.881 31.1275 147.391 32.3658 147.391 33.9928V39.2411H148.854V42.2H145.681V40.1482H144.736C144.271 40.8681 143.641 41.4297 142.846 41.8328C142.051 42.236 141.092 42.4376 139.967 42.4376ZM140.416 40.1482C141.181 40.1482 141.871 40.0042 142.486 39.7162C143.101 39.4283 143.581 39.0467 143.926 38.5716C144.286 38.082 144.466 37.5421 144.466 36.9517V36.5414H140.349C138.699 36.5414 137.874 37.1317 137.874 38.3124C137.874 38.8883 138.099 39.3419 138.549 39.673C138.999 39.9898 139.622 40.1482 140.416 40.1482Z" fill="black"/>
</svg>
