<svg width="145" height="64" viewBox="0 0 145 64" fill="none" xmlns="http://www.w3.org/2000/svg">
<path d="M1 33.5491C1 37.9785 2.96022 42.1638 6.2424 44.7446L11.6341 48.9827V44.0072L8.4085 41.4714C6.08798 39.6471 4.70254 36.6855 4.70254 33.5491V31.9627H11.6341V27.9271H4.70254V23.3757H11.6341V19.3401H1V33.5491ZM15.4284 19.3401V23.3757H21.9379V27.9271H15.4284V31.9627H21.9379V33.7109C21.9379 36.7634 20.6107 39.6782 18.388 41.5078L15.4284 43.9432V49L20.6202 44.7273C23.7642 42.1396 25.6412 38.0209 25.6412 33.7109V19.3401H15.4284Z" fill="black"/>
<path d="M37.1709 31.839H39.9213V26.9301H46.9849V24.4376H39.9213V21.6699H47.9611V19.1757H37.1709V31.839ZM55.289 19C51.0452 19 48.1936 21.6154 48.1936 25.5073C48.1936 27.4563 48.8979 29.1076 50.2293 30.2829C51.4947 31.4002 53.2919 32.0147 55.289 32.0147C59.5226 32.0147 62.3672 29.3993 62.3672 25.5073C62.3672 21.6154 59.5234 19 55.289 19ZM55.4288 29.5222H55.15C52.6837 29.5222 50.9611 27.8709 50.9611 25.5073C50.9611 23.1438 52.6837 21.4925 55.15 21.4925H55.4288C57.8849 21.4925 59.6006 23.1429 59.6006 25.5073C59.6006 27.8717 57.8849 29.5222 55.4288 29.5222ZM70.3977 19C66.1538 19 63.3023 21.6154 63.3023 25.5073C63.3023 27.4563 64.0066 29.1076 65.338 30.2829C66.6034 31.4002 68.4006 32.0147 70.3977 32.0147C74.6312 32.0147 77.4759 29.3993 77.4759 25.5073C77.4759 21.6154 74.6321 19 70.3977 19ZM70.5375 29.5222H70.2587C67.7924 29.5222 66.0698 27.8709 66.0698 25.5073C66.0698 23.1438 67.7924 21.4925 70.2587 21.4925H70.5375C72.9936 21.4925 74.7093 23.1429 74.7093 25.5073C74.7093 27.8717 72.9936 29.5222 70.5375 29.5222ZM77.5548 21.6691H82.473V31.839H85.2233V21.6691H90.1414V19.1757H77.5548V21.6691ZM100.731 25.3689C101.728 24.8219 102.351 23.7816 102.351 22.6046C102.351 20.5864 100.695 19.1766 98.3245 19.1766H91.2111V31.8398H98.5339C100.917 31.8398 102.647 30.3608 102.647 28.3235C102.647 26.9379 101.91 25.8241 100.731 25.3697V25.3689ZM93.9606 21.6691H98.062C98.9997 21.6691 99.5822 22.1286 99.5822 22.8686C99.5822 23.734 99.0709 24.1737 98.062 24.1737H93.9606V21.6691ZM98.1847 29.3456H93.9615V26.6653H98.1847C98.9577 26.6653 99.8798 26.8946 99.8798 27.9877C99.8798 28.8246 99.2305 29.3456 98.1847 29.3456ZM108.464 19.1757L102.601 31.839H105.527L106.835 28.9536H112.929L114.237 31.839H117.215L111.369 19.1757H108.464ZM107.97 26.4602L109.883 22.2783L111.795 26.4602H107.97ZM120.787 19.1757H118.037V31.839H128.967V29.3465H120.787V19.1757ZM132.775 19.1757H130.025V31.839H140.955V29.3465H132.775V19.1757ZM143.799 29.15C143.093 29.15 142.581 29.6892 142.581 30.4317C142.581 31.1743 143.086 31.7135 143.782 31.7135C144.478 31.7135 145 31.1864 145 30.4317C145 29.6771 144.507 29.15 143.8 29.15H143.799ZM36.7077 48.4833H39.458V43.5745H46.5217V41.082H39.458V38.3143H47.4979V35.8218H36.7077V48.4851V48.4833ZM57.2261 43.3131C57.2261 45.1799 56.2481 46.1665 54.3977 46.1665H54.1189C52.2685 46.1665 51.2905 45.1799 51.2905 43.3131V35.82H48.5402V43.4542C48.5402 45.0743 49.0206 46.3517 49.9677 47.2509C50.9525 48.1856 52.3963 48.659 54.2579 48.659C56.1194 48.659 57.5186 48.1856 58.5146 47.2509C59.4702 46.3543 59.9755 45.0414 59.9755 43.4533V35.8192H57.2252V43.3123L57.2261 43.3131ZM71.5978 44.4867L65.6151 35.8209H62.284V48.4842H65.0343V39.66L71.1217 48.4842H74.3481V35.8209H71.5978V44.4867ZM78.7593 37.3839L78.1245 35.82H77.6852V37.6141H77.9469V36.0381L78.5868 37.6141H78.9274L79.57 36.0303V37.6141H79.8316V35.82H79.395L78.7601 37.3839H78.7593ZM75.4711 36.0563H76.208V37.615H76.4696V36.0563H77.2065V35.8209H75.4711V36.0563Z" fill="black"/>
</svg>
