<svg width="894" height="1058" viewBox="0 0 894 1058" fill="none" xmlns="http://www.w3.org/2000/svg">
<path d="M0.176636 1024.91C0.176636 1024.91 85.7695 934.736 87.172 553.876C88.5746 173.016 0.176713 70.9784 0.176713 70.9784M446.098 1024.91C446.098 1024.91 444.695 932.363 446.097 551.503C447.5 170.643 446.098 70.9784 446.098 70.9784M48.9032 1024.91C48.9032 1024.91 124.72 934.469 126.122 553.609C127.525 172.749 48.9032 70.9784 48.9032 70.9784M99.9475 1024.91C99.9475 1024.91 166.015 934.203 167.418 553.343C168.82 172.483 99.9476 70.9784 99.9476 70.9784M150.026 1024.91C150.026 1024.91 206.372 933.938 207.775 553.078C209.177 172.218 150.026 70.9784 150.026 70.9784M200.544 1024.91C200.544 1024.91 247.196 933.674 248.599 552.814C250.001 171.953 200.544 70.9784 200.544 70.9784M248.217 1024.91C248.217 1024.91 285.203 933.41 286.605 552.55C288.008 171.69 248.217 70.9784 248.217 70.9784M297.265 1024.91C297.265 1024.91 324.613 933.147 326.016 552.287C327.418 171.427 297.265 70.9784 297.265 70.9784M346.276 1024.91C346.276 1024.91 364.013 932.885 365.416 552.025C366.818 171.165 346.277 70.9784 346.277 70.9784M395.226 1024.91C395.226 1024.91 403.379 932.624 404.782 551.763C406.184 170.903 395.226 70.9784 395.226 70.9784M92.1919 0.13678C92.1919 0.13678 159.238 101.562 442.417 103.224C725.597 104.886 801.464 0.136863 801.464 0.136863M92.192 528.54C92.192 528.54 161.002 526.877 444.182 528.539C727.361 530.201 801.464 528.54 801.464 528.54M92.1919 57.8761C92.1919 57.8761 159.436 147.716 442.615 149.378C725.795 151.04 801.464 57.8762 801.464 57.8762M92.1919 118.362C92.1919 118.362 159.634 196.65 442.813 198.312C725.993 199.974 801.464 118.362 801.464 118.362M92.1919 177.703C92.1919 177.703 159.831 244.472 443.01 246.134C726.19 247.796 801.464 177.703 801.464 177.703M92.1919 237.565C92.1919 237.565 160.027 292.847 443.207 294.509C726.387 296.171 801.464 237.565 801.464 237.565M92.1919 294.056C92.1919 294.056 160.223 337.884 443.403 339.546C726.583 341.208 801.464 294.056 801.464 294.056M92.1919 352.178C92.1919 352.178 160.419 384.584 443.598 386.246C726.778 387.908 801.464 352.178 801.464 352.178M92.1919 410.254C92.1919 410.254 160.614 431.271 443.793 432.933C726.973 434.595 801.464 410.254 801.464 410.254M92.1919 468.258C92.1919 468.258 160.808 477.919 443.988 479.581C727.167 481.243 801.464 468.258 801.464 468.258M92.1919 1057.71C92.1919 1057.71 159.238 956.286 442.417 954.624C725.597 952.962 801.464 1057.71 801.464 1057.71M92.1919 999.971C92.1919 999.971 159.436 910.131 442.615 908.469C725.795 906.807 801.464 999.971 801.464 999.971M92.1919 939.485C92.1919 939.485 159.634 861.197 442.813 859.535C725.993 857.873 801.464 939.485 801.464 939.485M92.1919 880.144C92.1919 880.144 159.831 813.376 443.01 811.714C726.19 810.052 801.464 880.144 801.464 880.144M92.1919 820.281C92.1919 820.281 160.027 765 443.207 763.338C726.387 761.676 801.464 820.281 801.464 820.281M92.1919 763.791C92.1919 763.791 160.223 719.963 443.403 718.301C726.583 716.639 801.464 763.791 801.464 763.791M92.1919 705.67C92.1919 705.67 160.419 673.264 443.598 671.602C726.778 669.94 801.464 705.67 801.464 705.67M92.1919 647.593C92.1919 647.593 160.614 626.575 443.793 624.914C726.973 623.252 801.464 647.593 801.464 647.593M92.192 589.589C92.192 589.589 160.808 579.928 443.988 578.266C727.168 576.604 801.464 589.589 801.464 589.589M893.449 1024.91C893.449 1024.91 807.856 934.736 806.454 553.876C805.051 173.015 893.449 70.9782 893.449 70.9782M844.723 1024.91C844.723 1024.91 768.906 934.469 767.504 553.609C766.101 172.749 844.723 70.9782 844.723 70.9782M793.678 1024.91C793.678 1024.91 727.61 934.203 726.208 553.343C724.805 172.483 793.678 70.9782 793.678 70.9782M743.6 1024.91C743.6 1024.91 687.254 933.938 685.851 553.078C684.449 172.218 743.6 70.9782 743.6 70.9782M693.082 1024.91C693.082 1024.91 646.43 933.674 645.027 552.813C643.625 171.953 693.082 70.9782 693.082 70.9782M645.409 1024.91C645.409 1024.91 608.423 933.41 607.021 552.55C605.618 171.69 645.409 70.9782 645.409 70.9782M596.361 1024.91C596.361 1024.91 569.013 933.147 567.611 552.287C566.208 171.427 596.361 70.9782 596.361 70.9782M547.35 1024.91C547.35 1024.91 529.613 932.885 528.21 552.025C526.808 171.165 547.35 70.9782 547.35 70.9782M498.4 1024.91C498.4 1024.91 490.247 932.624 488.845 551.763C487.442 170.903 498.4 70.9783 498.4 70.9783" stroke="#616161" stroke-width="0.469301"/>
</svg>
